<?xml version="1.0" standalone="no"?>
<!DOCTYPE svg PUBLIC "-//W3C//DTD SVG 20010904//EN"
 "http://www.w3.org/TR/2001/REC-SVG-20010904/DTD/svg10.dtd">
<svg version="1.0" xmlns="http://www.w3.org/2000/svg"
 width="300.000000pt" height="300.000000pt" viewBox="0 0 300.000000 300.000000"
 preserveAspectRatio="xMidYMid meet">
<metadata>
Created by potrace 1.11, written by Peter Selinger 2001-2013
</metadata>
<g transform="translate(0.000000,300.000000) scale(0.100000,-0.100000)"
fill="#000000" stroke="none">
<path d="M791 2938 c-40 -126 -77 -305 -73 -358 8 -111 12 -528 5 -538 -7 -10
-18 -9 -54 2 -24 8 -82 22 -129 30 -114 21 -195 55 -195 81 0 11 -7 20 -15 20
-9 0 -14 -7 -12 -18 2 -9 -4 -20 -12 -23 -19 -7 -138 23 -148 39 -5 7 -6 29
-3 49 3 20 1 40 -5 43 -20 12 -27 -5 -20 -50 l7 -45 -69 0 -68 0 0 -1085 0
-1085 23 0 c13 0 27 4 32 9 6 6 51 6 115 1 58 -5 446 -9 863 -9 641 0 758 2
754 13 -3 8 -3 17 0 20 10 10 12 57 2 51 -5 -4 -9 -2 -9 4 0 5 4 12 9 16 6 3
10 31 9 63 0 31 3 73 6 92 12 72 18 126 19 172 1 27 4 48 8 48 3 0 4 11 1 25
-2 14 1 32 8 40 6 8 9 23 5 35 -4 13 0 31 9 45 9 13 16 31 16 40 0 9 5 13 10
10 6 -4 16 -2 23 3 7 6 41 17 77 26 61 15 70 15 140 -2 62 -16 76 -22 78 -40
2 -12 7 -22 11 -22 16 0 80 73 73 84 -3 6 -5 38 -3 71 2 37 -1 56 -7 50 -12
-14 -35 -122 -28 -134 7 -10 -12 -27 -20 -19 -2 3 2 40 11 83 8 43 12 89 8
103 -5 20 -3 24 10 19 22 -8 28 17 10 42 -21 31 -38 20 -38 -25 0 -36 -2 -39
-30 -42 -16 -2 -62 4 -101 14 -59 14 -72 22 -83 45 -8 19 -17 25 -30 22 -10
-2 -25 2 -33 10 -13 14 -41 9 -39 -7 3 -18 0 -20 -9 -6 -6 10 -4 20 7 33 16
17 16 17 0 11 -24 -9 -21 7 7 34 14 13 27 18 31 13 3 -6 21 -10 39 -9 19 1 53
-9 76 -21 42 -22 42 -19 8 31 -19 28 -24 58 -9 58 6 0 22 11 37 25 15 14 33
25 41 25 19 0 83 29 105 48 10 8 18 22 18 30 0 13 -2 13 -17 0 -26 -22 -51
-29 -57 -15 -3 9 -5 9 -5 0 -1 -7 -6 -13 -12 -13 -6 0 -9 7 -6 14 4 10 1 13
-9 9 -8 -3 -21 0 -29 7 -8 7 -15 9 -16 4 0 -5 -4 1 -9 12 -7 18 -16 21 -49 19
-29 -2 -41 2 -41 11 0 8 -7 14 -15 14 -8 0 -15 7 -15 16 0 10 -5 14 -15 10
-18 -6 -38 34 -29 58 4 10 -1 12 -20 9 -20 -4 -24 -1 -22 13 2 11 -2 25 -8 33
-9 12 -8 14 5 9 11 -4 15 0 14 13 -2 23 -15 38 -15 17 0 -9 -6 -21 -14 -27
-20 -17 -32 24 -15 47 7 9 9 14 5 10 -5 -4 -15 -3 -23 4 -7 6 -17 8 -20 4 -4
-4 -1 -12 7 -17 13 -9 12 -10 -2 -6 -22 7 -30 -3 -16 -20 14 -17 6 -25 -16
-17 -9 4 -15 13 -12 20 6 16 -10 19 -19 4 -3 -5 -11 -10 -18 -10 -6 0 0 8 13
17 14 10 29 17 34 15 5 -2 6 4 3 12 -3 8 -1 16 6 19 6 2 -6 4 -27 5 -30 1 -39
-3 -43 -18 -10 -37 -21 -20 -17 28 2 26 1 38 -2 27 -12 -46 -15 -50 -23 -36
-6 9 -11 10 -15 2 -11 -17 -27 -13 -25 7 3 36 0 45 -14 33 -19 -15 -29 -3 -16
20 9 17 7 18 -16 9 -16 -6 -25 -6 -25 0 0 6 6 10 14 10 21 0 26 23 10 45 -14
18 -14 18 -14 -2 0 -11 -7 -24 -16 -27 -22 -9 -24 -8 -24 10 0 13 -3 14 -15 4
-12 -10 -16 -8 -25 15 -11 28 -5 49 11 39 5 -3 6 -10 3 -16 -4 -7 -2 -8 5 -4
6 4 18 3 25 -3 11 -9 15 -5 19 17 3 16 3 40 0 53 l-5 24 18 -25 c10 -14 18
-28 16 -32 -1 -5 3 -8 8 -8 5 0 9 -3 7 -8 -1 -4 2 -8 8 -10 5 -2 11 1 13 7 2
6 -1 11 -7 11 -6 0 -11 5 -11 12 0 6 -7 19 -16 29 -13 14 -13 21 -3 37 11 18
10 24 -4 40 -9 10 -14 21 -11 25 4 3 2 19 -4 36 -8 22 -7 31 1 34 8 3 7 9 -4
18 -15 13 -56 144 -51 162 1 4 -2 7 -7 7 -5 0 -12 23 -15 52 -5 32 -10 47 -15
39 -6 -10 -10 -8 -16 6 -17 39 -14 63 6 63 10 0 20 5 20 10 3 19 5 25 21 55
15 29 33 93 30 107 -1 3 5 11 13 18 7 6 12 17 9 24 -6 15 80 108 109 119 10 4
16 11 12 16 -6 11 29 33 59 38 32 6 32 12 -2 44 -34 31 -39 44 -22 54 6 3 10
0 10 -8 0 -7 7 -14 15 -14 11 0 14 6 9 16 -4 9 -6 24 -6 34 1 23 -15 22 -28
-4 -7 -11 -14 -18 -17 -16 -2 3 0 15 7 26 8 16 8 21 -1 21 -8 0 -9 11 -5 33
16 72 16 88 2 74 -8 -6 -12 -15 -9 -19 2 -5 -1 -8 -6 -8 -14 0 -14 17 -1 25 6
4 8 10 5 15 -3 4 8 12 23 18 16 5 29 17 29 26 0 18 -8 20 -25 6 -9 -7 -9 -7
-2 2 5 7 10 16 10 20 0 4 -209 8 -464 8 l-464 0 -21 -62z m316 -403 c21 -9 45
-23 54 -31 10 -9 23 -17 31 -18 51 -8 119 -94 111 -139 -3 -15 -10 -27 -17
-27 -6 -1 -2 -6 9 -13 11 -7 21 -18 23 -25 1 -8 -2 -11 -8 -7 -5 3 -10 0 -10
-7 0 -7 14 -19 31 -27 l30 -13 -21 -23 c-12 -13 -17 -24 -11 -26 7 -3 6 -13
-3 -31 -12 -23 -12 -26 0 -21 16 6 19 -22 3 -32 -6 -4 -8 -14 -5 -22 5 -11 2
-13 -10 -9 -15 6 -15 4 -3 -10 11 -14 11 -18 1 -21 -6 -3 -10 -8 -7 -13 3 -4
-4 -10 -16 -13 -17 -5 -18 -3 -8 9 10 12 9 13 -6 8 -12 -5 -16 -4 -12 3 4 6
-2 13 -12 16 -22 5 -31 -10 -31 -54 0 -16 -4 -29 -10 -29 -5 0 -10 -7 -10 -15
0 -17 -9 -19 -29 -6 -7 5 -10 15 -7 22 4 8 -4 1 -19 -16 -23 -27 -27 -28 -36
-12 -5 9 -14 17 -19 17 -14 0 -115 101 -131 130 -7 14 -14 43 -15 65 -2 22 -6
60 -11 85 -5 25 -8 86 -8 137 0 50 -3 86 -7 80 -14 -21 -8 3 7 33 34 67 104
87 182 55z m377 -230 c-4 -8 -8 -15 -10 -15 -2 0 -4 7 -4 15 0 8 4 15 10 15 5
0 7 -7 4 -15z m-124 -35 c0 -5 -2 -10 -4 -10 -3 0 -8 5 -11 10 -3 6 -1 10 4
10 6 0 11 -4 11 -10z m110 6 c0 -11 -19 -15 -25 -6 -3 5 1 10 9 10 9 0 16 -2
16 -4z m-351 -385 c9 -6 10 -11 2 -15 -6 -4 -11 -2 -11 4 0 6 -4 9 -9 5 -5 -3
-12 -1 -16 5 -8 12 15 13 34 1z m358 -23 c-3 -8 -6 -5 -6 6 -1 11 2 17 5 13 3
-3 4 -12 1 -19z m-299 -17 c3 -8 -1 -12 -9 -9 -7 2 -15 10 -17 17 -3 8 1 12 9
9 7 -2 15 -10 17 -17z m394 -17 c2 -19 -1 -43 -8 -52 -8 -11 -9 -24 -3 -39 5
-13 5 -23 1 -23 -4 0 -17 -3 -29 -6 -17 -5 -23 -2 -23 10 0 10 6 13 15 10 11
-4 13 -2 9 9 -3 8 -1 18 5 22 16 9 13 25 -3 19 -7 -3 -16 2 -19 10 -4 9 -2 16
3 16 6 0 10 7 10 15 0 8 5 15 10 15 7 0 7 -7 -1 -21 -9 -17 -8 -20 3 -17 7 3
12 18 12 36 -2 44 13 40 18 -4z m-77 -14 c3 -5 -3 -10 -15 -10 -12 0 -18 5
-15 10 3 6 10 10 15 10 5 0 12 -4 15 -10z m2 -66 c-3 -3 -12 -4 -19 -1 -8 3
-5 6 6 6 11 1 17 -2 13 -5z m-500 -196 c-3 -8 -6 -5 -6 6 -1 11 2 17 5 13 3
-3 4 -12 1 -19z m673 -68 c0 -5 -2 -10 -4 -10 -3 0 -8 5 -11 10 -3 6 -1 10 4
10 6 0 11 -4 11 -10z m34 -30 c-6 -6 -10 -3 -10 10 0 13 4 16 10 10 7 -7 7
-13 0 -20z m53 -496 c-3 -3 -12 -4 -19 -1 -8 3 -5 6 6 6 11 1 17 -2 13 -5z
m50 -10 c-3 -3 -12 -4 -19 -1 -8 3 -5 6 6 6 11 1 17 -2 13 -5z m-738 -104
c-28 -35 -49 -50 -49 -35 0 5 72 74 78 75 2 0 -12 -18 -29 -40z m645 19 c-3
-5 -10 -7 -15 -3 -5 3 -7 10 -3 15 3 5 10 7 15 3 5 -3 7 -10 3 -15z m-4 -79
c8 -5 11 -10 5 -10 -5 0 -17 5 -25 10 -8 5 -10 10 -5 10 6 0 17 -5 25 -10z"/>
<path d="M993 2508 c-24 -27 -36 -58 -23 -58 5 0 12 5 15 10 4 6 11 7 17 4 6
-4 25 -8 41 -10 36 -2 48 -19 40 -56 -5 -24 -3 -27 12 -21 14 5 17 3 12 -10
-5 -13 -1 -17 15 -17 20 0 20 -1 4 -19 -10 -11 -28 -22 -41 -25 -12 -3 -30
-17 -39 -32 l-17 -25 27 17 c27 18 27 18 15 -3 -19 -37 -14 -45 22 -38 32 7
32 7 13 -13 -16 -19 -17 -25 -6 -52 7 -16 10 -37 6 -45 -4 -12 4 -20 29 -31
77 -32 109 -7 64 50 -18 23 -21 36 -16 86 4 53 3 58 -10 44 -18 -17 -31 -11
-16 8 5 7 10 44 12 81 3 79 -8 102 -71 147 -49 36 -77 38 -105 8z"/>
<path d="M963 2340 c0 -30 2 -43 4 -27 2 15 2 39 0 55 -2 15 -4 2 -4 -28z"/>
<path d="M1174 2318 c-3 -4 2 -8 10 -8 9 0 16 -4 16 -10 0 -11 30 -13 54 -4 9
3 16 12 16 20 0 10 -12 14 -45 12 -25 -1 -48 -5 -51 -10z"/>
<path d="M961 2264 c0 -11 3 -14 6 -6 3 7 2 16 -1 19 -3 4 -6 -2 -5 -13z"/>
<path d="M2380 2991 c0 -5 7 -14 15 -21 9 -7 14 -19 11 -26 -3 -7 2 -15 10
-18 9 -3 13 -10 9 -15 -3 -6 4 -15 15 -21 20 -11 21 -10 10 9 -9 18 -8 21 12
21 40 0 52 16 49 63 -1 14 -11 17 -66 17 -36 0 -65 -4 -65 -9z"/>
<path d="M145 2753 c15 -37 17 -115 4 -124 -10 -6 -9 -12 6 -29 27 -29 139
-82 166 -78 21 3 25 10 32 67 8 64 0 90 -23 76 -6 -4 -8 -14 -5 -24 3 -9 -1
-25 -8 -35 -13 -17 -16 -17 -68 9 -67 34 -71 40 -65 91 5 42 -6 64 -32 64 -10
0 -12 -6 -7 -17z"/>
<path d="M20 2515 c33 -19 49 -19 24 0 -10 8 -26 14 -34 14 -9 0 -4 -6 10 -14z"/>
<path d="M2040 2500 c0 -5 -10 -10 -22 -12 -22 -3 -21 -4 7 -20 l30 -17 -50
-1 c-36 0 -46 -3 -35 -10 8 -5 10 -10 5 -10 -6 0 -16 5 -21 10 -7 7 -17 5 -30
-5 -17 -13 -11 -15 71 -13 102 1 193 -13 205 -32 12 -20 84 -24 100 -5 24 28
14 36 -114 94 -51 23 -146 37 -146 21z"/>
<path d="M77 2489 c7 -7 15 -10 18 -7 3 3 -2 9 -12 12 -14 6 -15 5 -6 -5z"/>
<path d="M2057 2374 c-71 -17 -113 -38 -127 -64 -9 -17 -8 -20 14 -20 14 0 37
5 53 11 36 14 103 20 103 9 0 -4 -9 -10 -20 -13 -18 -5 -19 -8 -9 -31 10 -21
15 -24 32 -15 14 8 22 8 27 -1 5 -8 16 -10 25 -6 10 3 16 9 13 12 -3 3 7 18
23 34 16 16 29 37 29 48 0 11 3 22 8 25 4 2 2 3 -3 1 -6 -1 -19 4 -30 12 -23
17 -62 17 -138 -2z m43 -12 c0 -10 -68 -32 -96 -32 -18 1 -18 1 1 12 11 7 36
15 55 19 19 4 36 7 38 8 1 0 2 -3 2 -7z"/>
<path d="M2429 2324 c-18 -19 -28 -34 -21 -34 7 0 12 -4 12 -10 0 -5 -7 -7
-15 -4 -17 7 -20 -13 -5 -36 8 -13 11 -13 26 2 15 14 16 22 6 43 -12 26 -14
25 36 29 12 1 31 23 32 36 0 19 -43 3 -71 -26z"/>
<path d="M1935 2260 c3 -5 8 -10 11 -10 2 0 4 5 4 10 0 6 -5 10 -11 10 -5 0
-7 -4 -4 -10z"/>
<path d="M560 2130 c0 -19 3 -21 12 -12 9 9 9 15 0 24 -9 9 -12 7 -12 -12z"/>
<path d="M1570 1992 c6 -13 14 -21 18 -18 3 4 -2 14 -12 24 -18 16 -18 16 -6
-6z"/>
<path d="M1595 1880 c3 -5 11 -10 16 -10 6 0 7 5 4 10 -3 6 -11 10 -16 10 -6
0 -7 -4 -4 -10z"/>
<path d="M2210 1880 c-24 -15 8 -61 55 -79 22 -8 46 -22 52 -31 11 -13 12 -11
9 9 -1 14 -9 27 -18 30 -22 9 -63 44 -74 63 -6 12 -14 14 -24 8z"/>
<path d="M2338 1863 c-21 -8 -38 -19 -38 -23 0 -12 43 -17 91 -11 34 5 45 11
47 26 2 16 -4 20 -30 22 -18 1 -50 -5 -70 -14z"/>
<path d="M1644 1646 c-4 -10 -2 -22 5 -29 6 -6 11 -19 11 -29 0 -22 23 -24 40
-3 14 16 21 67 9 59 -5 -3 -9 -16 -9 -30 0 -13 -3 -24 -6 -24 -11 0 -29 25
-32 45 -5 28 -10 31 -18 11z"/>
<path d="M2334 1629 c-5 -8 -3 -9 7 -4 11 6 11 5 3 -4 -9 -10 -16 -10 -32 0
-17 10 -23 10 -37 -4 -20 -21 -31 -21 -38 -3 -6 15 -12 14 -137 -30 -12 -4
-12 -7 3 -16 16 -9 48 -6 107 9 19 5 40 6 111 4 l56 -1 -10 -44 c-5 -25 -21
-57 -34 -73 l-24 -28 4 28 c3 22 0 28 -19 33 -30 8 -58 -2 -49 -17 4 -5 -1
-17 -11 -25 -11 -9 -13 -12 -5 -8 7 3 17 0 22 -7 7 -12 12 -12 29 -1 19 11 22
11 26 -5 4 -15 14 -17 65 -15 l60 4 -31 30 c-30 28 -30 30 -11 35 14 4 21 13
21 30 0 25 0 25 26 8 27 -18 43 -14 28 7 -17 23 -16 69 2 89 9 10 15 19 12 19
-14 0 -68 -23 -68 -28 -1 -35 -50 -36 -50 -2 0 23 -16 34 -26 19z"/>
<path d="M1830 1536 c0 -9 5 -16 10 -16 6 0 10 4 10 9 0 6 -4 13 -10 16 -5 3
-10 -1 -10 -9z"/>
<path d="M2202 153 l3 -148 158 -3 c158 -3 158 -2 152 19 -4 11 -15 49 -25 83
-24 84 -44 120 -81 146 -39 29 -111 50 -166 50 l-44 0 3 -147z"/>
</g>
</svg>
